<?xml version="1.0" encoding="UTF-8" standalone="no"?>
<!-- Created with Inkscape (http://www.inkscape.org/) -->

<svg xmlns:dc="http://purl.org/dc/elements/1.1/" xmlns:cc="http://creativecommons.org/ns#" xmlns:rdf="http://www.w3.org/1999/02/22-rdf-syntax-ns#" xmlns:svg="http://www.w3.org/2000/svg" xmlns="http://www.w3.org/2000/svg" xmlns:sodipodi="http://sodipodi.sourceforge.net/DTD/sodipodi-0.dtd" xmlns:inkscape="http://www.inkscape.org/namespaces/inkscape" width="1200" height="933.37946" id="svg3062" version="1.1" inkscape:version="0.48.5 r10040" sodipodi:docname="Maestro 2016.svg">
  <defs id="defs3064">
    <clipPath id="clipPath3944" clipPathUnits="userSpaceOnUse">
      <path id="path3946" d="M 0,612 792,612 792,0 0,0 0,612 z" inkscape:connector-curvature="0" />
    </clipPath>
    <clipPath id="clipPath3538" clipPathUnits="userSpaceOnUse">
      <path id="path3540" d="M 218.25,0 792,0 l 0,489.1 -573.75,0 0,-489.1 z" inkscape:connector-curvature="0" />
    </clipPath>
    <clipPath id="clipPath3518" clipPathUnits="userSpaceOnUse">
      <path id="path3520" d="M 218.25,0 792,0 l 0,489.1 -573.75,0 0,-489.1 z" inkscape:connector-curvature="0" />
    </clipPath>
  </defs>
  <sodipodi:namedview id="base" pagecolor="#ffffff" bordercolor="#666666" borderopacity="1.0" inkscape:pageopacity="0.0" inkscape:pageshadow="2" inkscape:zoom="0.12374369" inkscape:cx="-210.23215" inkscape:cy="-666.20878" inkscape:document-units="px" inkscape:current-layer="layer1" showgrid="false" fit-margin-top="0" fit-margin-left="0" fit-margin-right="0" fit-margin-bottom="0" inkscape:window-width="1366" inkscape:window-height="706" inkscape:window-x="-8" inkscape:window-y="-8" inkscape:window-maximized="1" />
  <metadata id="metadata3067">
    <rdf:RDF>
      <cc:Work rdf:about="">
        <dc:format>image/svg+xml</dc:format>
        <dc:type rdf:resource="http://purl.org/dc/dcmitype/StillImage" />
        <dc:title></dc:title>
      </cc:Work>
    </rdf:RDF>
  </metadata>
  <g inkscape:label="Layer 1" inkscape:groupmode="layer" id="layer1" transform="translate(-3593.659,-449.61012)">
    <g id="g5519" transform="matrix(18.862438,0,0,18.862438,-18766.903,-12356.607)">
      <g id="g5509">
        <g id="g3620" transform="matrix(1.25,0,0,-1.25,1248.4591,710.77105)">
          <path inkscape:connector-curvature="0" d="m 0,0 0,0.61 -0.159,0 -0.184,-0.419 -0.183,0.419 -0.16,0 0,-0.61 0.113,0 0,0.46 0.172,-0.397 0.117,0 0.172,0.398 L -0.112,0 0,0 z m -1.009,0 0,0.506 0.204,0 0,0.103 -0.52,0 0,-0.103 0.204,0 0,-0.506 0.112,0 z" style="fill:#0099df;fill-opacity:1;fill-rule:nonzero;stroke:none" id="path3622" />
        </g>
        <g id="g5502">
          <path id="path3624" style="fill:#2271ce;fill-opacity:1;fill-rule:nonzero;stroke:none" d="m 1225.8657,714.04505 -17.2025,0 0,-30.915 17.2025,0 0,30.915 z" inkscape:connector-curvature="0" />
          <g transform="matrix(1.25,0,0,-1.25,1209.7545,698.58818)" id="g3626">
            <path id="path3628" style="fill:#005eb6;fill-opacity:1;fill-rule:nonzero;stroke:none" d="m 0,0 c 0,5.017 2.349,9.486 6.007,12.366 -2.675,2.106 -6.051,3.363 -9.72,3.363 -8.686,0 -15.727,-7.042 -15.727,-15.729 0,-8.687 7.041,-15.729 15.727,-15.729 3.669,0 7.045,1.257 9.72,3.363 C 2.349,-9.486 0,-5.017 0,0" inkscape:connector-curvature="0" />
          </g>
          <g transform="matrix(1.25,0,0,-1.25,1249.073,698.58818)" id="g3630">
            <path id="path3632" style="fill:#0099df;fill-opacity:1;fill-rule:nonzero;stroke:none" d="m 0,0 c 0,-8.687 -7.041,-15.729 -15.727,-15.729 -3.669,0 -7.045,1.257 -9.72,3.363 3.658,2.88 6.007,7.349 6.007,12.366 0,5.017 -2.349,9.486 -6.007,12.366 2.675,2.106 6.051,3.363 9.72,3.363 C -7.041,15.729 0,8.687 0,0" inkscape:connector-curvature="0" />
          </g>
        </g>
      </g>
      <g id="g5423">
        <g id="g3634" transform="matrix(1.25,0,0,-1.25,1232.0172,727.73918)">
          <path inkscape:connector-curvature="0" d="m 0,0 0,-0.103 0.095,0 c 0.021,0 0.039,0.005 0.051,0.013 0.013,0.008 0.02,0.022 0.02,0.039 0,0.017 -0.007,0.03 -0.02,0.038 C 0.134,-0.004 0.116,0 0.095,0 L 0,0 z M 0.096,0.072 C 0.145,0.072 0.183,0.061 0.21,0.039 0.237,0.017 0.25,-0.013 0.25,-0.051 0.25,-0.083 0.24,-0.109 0.218,-0.13 0.197,-0.15 0.166,-0.163 0.127,-0.168 l 0.126,-0.145 -0.098,0 -0.117,0.144 -0.038,0 0,-0.144 -0.082,0 0,0.385 0.178,0 z M 0.071,-0.445 c 0.045,0 0.087,0.008 0.125,0.025 0.039,0.017 0.073,0.04 0.102,0.069 0.029,0.029 0.052,0.063 0.069,0.103 0.016,0.039 0.025,0.081 0.025,0.126 0,0.045 -0.009,0.087 -0.025,0.126 C 0.35,0.043 0.327,0.078 0.298,0.107 0.269,0.136 0.235,0.159 0.196,0.175 0.158,0.192 0.116,0.2 0.071,0.2 0.026,0.2 -0.017,0.192 -0.057,0.175 -0.096,0.159 -0.131,0.136 -0.16,0.107 -0.189,0.078 -0.212,0.043 -0.228,0.004 c -0.017,-0.039 -0.025,-0.081 -0.025,-0.126 0,-0.045 0.008,-0.087 0.025,-0.126 0.016,-0.04 0.039,-0.074 0.068,-0.103 0.029,-0.029 0.064,-0.052 0.103,-0.069 0.04,-0.017 0.083,-0.025 0.128,-0.025 m 0,0.738 C 0.129,0.293 0.184,0.282 0.235,0.26 0.287,0.239 0.331,0.209 0.37,0.171 0.408,0.134 0.438,0.09 0.46,0.039 0.482,-0.011 0.493,-0.065 0.493,-0.122 0.493,-0.179 0.482,-0.233 0.46,-0.283 0.438,-0.333 0.408,-0.377 0.37,-0.414 0.331,-0.452 0.287,-0.482 0.235,-0.504 0.184,-0.526 0.129,-0.537 0.071,-0.537 c -0.06,0 -0.115,0.011 -0.167,0.033 -0.052,0.022 -0.097,0.052 -0.135,0.09 -0.038,0.037 -0.068,0.081 -0.09,0.131 -0.022,0.05 -0.033,0.104 -0.033,0.161 0,0.057 0.011,0.111 0.033,0.161 0.022,0.051 0.052,0.095 0.09,0.132 0.038,0.038 0.083,0.068 0.135,0.089 0.052,0.022 0.107,0.033 0.167,0.033" style="fill:#242021;fill-opacity:1;fill-rule:nonzero;stroke:none" id="path3636" />
        </g>
        <g id="g5410">
          <g transform="matrix(1.25,0,0,-1.25,1230.6085,723.32355)" id="g3638">
            <path id="path3640" style="fill:#231f20;fill-opacity:1;fill-rule:nonzero;stroke:none" d="m 0,0 c -0.437,0.288 -1.04,0.437 -1.703,0.437 -1.058,0 -1.739,-0.507 -1.739,-1.337 0,-0.681 0.507,-1.1 1.441,-1.232 l 0.429,-0.061 c 0.497,-0.07 0.733,-0.201 0.733,-0.436 0,-0.324 -0.332,-0.507 -0.952,-0.507 -0.629,0 -1.083,0.201 -1.389,0.437 l -0.428,-0.708 c 0.498,-0.367 1.127,-0.542 1.808,-0.542 1.206,0 1.905,0.568 1.905,1.363 0,0.734 -0.55,1.118 -1.459,1.25 l -0.428,0.061 c -0.393,0.052 -0.708,0.131 -0.708,0.41 0,0.306 0.297,0.489 0.795,0.489 0.533,0 1.049,-0.201 1.302,-0.358 L 0,0 z" inkscape:connector-curvature="0" />
          </g>
          <g transform="matrix(1.25,0,0,-1.25,1203.7883,725.5183)" id="g3642">
            <path id="path3644" style="fill:#231f20;fill-opacity:1;fill-rule:nonzero;stroke:none" d="m 0,0 c 0,-1.267 0.882,-2.193 2.228,-2.193 0.629,0 1.048,0.14 1.502,0.498 L 3.293,-0.961 C 2.953,-1.206 2.595,-1.337 2.201,-1.337 1.476,-1.328 0.944,-0.804 0.944,0 c 0,0.804 0.532,1.328 1.257,1.337 0.394,0 0.752,-0.131 1.092,-0.376 L 3.73,1.695 C 3.276,2.053 2.857,2.193 2.228,2.193 0.882,2.193 0,1.267 0,0" inkscape:connector-curvature="0" />
          </g>
          <g transform="matrix(1.25,0,0,-1.25,1214.7363,722.77742)" id="g3646">
            <path id="path3648" style="fill:#231f20;fill-opacity:1;fill-rule:nonzero;stroke:none" d="m 0,0 c -0.524,0 -0.865,-0.245 -1.101,-0.612 l 0,0.507 -0.899,0 0,-4.176 0.908,0 0,2.342 c 0,0.69 0.297,1.074 0.891,1.074 0.184,0 0.376,-0.026 0.568,-0.105 l 0.279,0.856 C 0.446,-0.035 0.183,0 0,0" inkscape:connector-curvature="0" />
          </g>
          <g transform="matrix(1.25,0,0,-1.25,1218.9541,722.77742)" id="g3650">
            <path id="path3652" style="fill:#231f20;fill-opacity:1;fill-rule:nonzero;stroke:none" d="m 0,0 c -0.524,0 -0.865,-0.245 -1.101,-0.612 l 0,0.507 -0.899,0 0,-4.176 0.908,0 0,2.342 c 0,0.69 0.297,1.074 0.891,1.074 0.184,0 0.376,-0.026 0.568,-0.105 l 0.279,0.856 C 0.446,-0.035 0.183,0 0,0" inkscape:connector-curvature="0" />
          </g>
          <path id="path3654" style="fill:#231f20;fill-opacity:1;fill-rule:nonzero;stroke:none" d="m 1210.997,728.1263 -1.1425,0 0,-5.2125 1.1425,0 0,5.2125 z m -0.5775,-7.8175 c 0.1125,0 0.2175,0.02 0.3162,0.0625 0.098,0.0412 0.1825,0.0987 0.255,0.17125 0.072,0.0725 0.13,0.1575 0.1713,0.255 0.043,0.0987 0.062,0.20375 0.062,0.31625 0,0.1125 -0.02,0.2175 -0.062,0.315 -0.041,0.0987 -0.099,0.1825 -0.1713,0.25375 -0.072,0.07 -0.1575,0.12625 -0.255,0.165 -0.099,0.04 -0.2037,0.06 -0.3162,0.06 -0.1125,0 -0.2175,-0.02 -0.315,-0.06 -0.099,-0.0387 -0.1825,-0.095 -0.2538,-0.165 -0.07,-0.0712 -0.125,-0.155 -0.165,-0.25375 -0.04,-0.0975 -0.06,-0.2025 -0.06,-0.315 0,-0.1125 0.02,-0.2175 0.06,-0.31625 0.04,-0.0975 0.095,-0.1825 0.165,-0.255 0.071,-0.0725 0.155,-0.13 0.2538,-0.17125 0.098,-0.0425 0.2025,-0.0625 0.315,-0.0625" inkscape:connector-curvature="0" />
          <g transform="matrix(1.25,0,0,-1.25,1225.3951,725.9178)" id="g3656">
            <path id="path3658" style="fill:#231f20;fill-opacity:1;fill-rule:nonzero;stroke:none" d="m 0,0 c 0,-0.331 -0.055,-0.615 -0.163,-0.853 -0.109,-0.238 -0.252,-0.432 -0.43,-0.583 -0.178,-0.151 -0.381,-0.262 -0.61,-0.333 -0.23,-0.071 -0.465,-0.107 -0.705,-0.107 -0.241,0 -0.476,0.036 -0.705,0.107 -0.23,0.071 -0.434,0.182 -0.613,0.333 -0.179,0.151 -0.322,0.345 -0.43,0.583 -0.107,0.238 -0.161,0.522 -0.161,0.853 l 0,2.403 0.903,0 0,-2.32 c 0,-0.2 0.026,-0.371 0.077,-0.512 0.052,-0.14 0.123,-0.254 0.213,-0.341 0.09,-0.087 0.197,-0.151 0.32,-0.19 0.123,-0.039 0.255,-0.059 0.396,-0.059 0.14,0 0.272,0.02 0.395,0.059 0.123,0.039 0.23,0.103 0.32,0.19 0.091,0.087 0.161,0.201 0.213,0.341 0.052,0.141 0.077,0.312 0.077,0.512 l 0,2.32 L 0,2.403 0,0 z" inkscape:connector-curvature="0" />
          </g>
        </g>
      </g>
    </g>
  </g>
</svg>
