<svg width="40" height="25" viewBox="0 0 40 25" fill="none" xmlns="http://www.w3.org/2000/svg">
<path fill-rule="evenodd" clip-rule="evenodd" d="M39.3126 19.4738V20.4738H39.2263V19.7178L39.0941 20.3701H39.0045L38.8727 19.7192V20.4738H38.7861V19.4738H38.9087L39.0495 20.1614L39.1903 19.4738H39.3126ZM38.5372 19.6438V20.4738H38.4519V19.6438H38.2949V19.4745H38.6942V19.6438H38.5372Z" fill="#F89E1B"/>
<path d="M14.6332 21.999H25.3191V3.15088H14.6332V21.999Z" fill="#F16522"/>
<path d="M15.3214 12.5C15.3214 8.67194 17.1417 5.26283 19.9761 3.06561C17.9034 1.45874 15.2874 0.5 12.4446 0.5C5.71412 0.5 0.258064 5.87255 0.258064 12.5C0.258064 19.1274 5.71412 24.5 12.4446 24.5C15.2874 24.5 17.9034 23.5413 19.9761 21.9344C17.1417 19.7372 15.3214 16.3281 15.3214 12.5Z" fill="#E52523"/>
<path d="M39.6942 12.5C39.6942 19.1274 34.2382 24.5 27.5076 24.5C24.6646 24.5 22.0489 23.5413 19.9762 21.9344C22.8105 19.7372 24.6309 16.3281 24.6309 12.5C24.6309 8.67194 22.8105 5.26283 19.9762 3.06561C22.0489 1.45874 24.6646 0.5 27.5076 0.5C34.2382 0.5 39.6942 5.87255 39.6942 12.5Z" fill="#F89E1B"/>
</svg>
